# xmcd
#
# Track frame offsets:
#	150
#	31028
#	57153
#	80555
#	107375
#	135680
#	156943
#	181365
#	204885
#	230190
#	254255
#
# Disc length: 3687 seconds
#
# Revision: 1
# Processed by: cddbd v1.5.1PL0 Copyright (c) Steve Scherf et al.
# Submitted via: CDex 1.50Beta5
#
DISCID=8a0e650b
DTITLE=Miki Imai - Take Me to the Sunshine
DYEAR=1900
DGENRE=
TTITLE0=PRIDE
TTITLE1=DRIVEに連れてって
TTITLE2=瞳がほほえむから
TTITLE3=Miss You
TTITLE4=AQUA
TTITLE5=半袖
TTITLE6=PIECE OF MY WISH
TTITLE7=Goodbye Yesterday
TTITLE8=The Days I Spent With You
TTITLE9=潮騒
TTITLE10=野性の嵐
EXTD=
EXTT0=
EXTT1=
EXTT2=
EXTT3=
EXTT4=
EXTT5=
EXTT6=
EXTT7=
EXTT8=
EXTT9=
EXTT10=
PLAYORDER=
